<svg width="183" height="82" viewBox="0 0 183 82" fill="none" xmlns="http://www.w3.org/2000/svg">
<rect x="0.5" y="0.5" width="182" height="80.3333" fill="white" stroke="black"/>
<path d="M58.7448 39.44C59.1448 39.44 59.4748 39.55 59.7348 39.77C60.0148 39.99 60.1548 40.34 60.1548 40.82C60.1548 41.28 60.0148 41.62 59.7348 41.84C59.4748 42.06 59.1448 42.17 58.7448 42.17H58.3548L58.5348 48.89C58.5548 49.33 58.4348 49.68 58.1748 49.94C57.9148 50.2 57.5448 50.33 57.0648 50.33C56.6048 50.33 56.2348 50.21 55.9548 49.97C55.6948 49.73 55.5548 49.4 55.5348 48.98L55.3248 42.11L46.2048 41.96L45.6048 49.4C45.5248 50.12 45.0248 50.48 44.1048 50.48C43.0248 50.48 42.5248 50.05 42.6048 49.19L43.1748 41.9H42.7248C42.3648 41.9 42.0548 41.78 41.7948 41.54C41.5348 41.3 41.4048 40.97 41.4048 40.55C41.4048 40.11 41.5348 39.78 41.7948 39.56C42.0548 39.32 42.3948 39.2 42.8148 39.2H43.3848L44.1348 29.93C44.1548 29.53 44.3048 29.22 44.5848 29C44.8848 28.76 45.2548 28.64 45.6948 28.64C46.2148 28.64 46.5948 28.78 46.8348 29.06C47.0748 29.34 47.1748 29.7 47.1348 30.14L46.4148 39.26L55.2348 39.38L54.9648 30.08C54.9648 29.64 55.0948 29.29 55.3548 29.03C55.6148 28.77 55.9848 28.64 56.4648 28.64C56.9248 28.64 57.2848 28.77 57.5448 29.03C57.8248 29.27 57.9748 29.58 57.9948 29.96L58.2648 39.44H58.7448ZM69.849 50.36C67.989 50.36 66.629 50.17 65.769 49.79C64.929 49.41 64.369 48.76 64.089 47.84C63.829 46.92 63.699 45.48 63.699 43.52C63.699 41.3 63.799 39.17 63.999 37.13C64.219 35.07 64.529 32.81 64.929 30.35C64.989 29.99 65.159 29.71 65.439 29.51C65.719 29.29 66.079 29.18 66.519 29.18C66.999 29.18 67.349 29.3 67.569 29.54C67.809 29.76 67.929 30.07 67.929 30.47C67.929 30.63 67.919 30.75 67.899 30.83C67.399 33.97 67.049 36.39 66.849 38.09C66.669 39.77 66.579 41.61 66.579 43.61C66.579 44.81 66.639 45.68 66.759 46.22C66.879 46.76 67.139 47.14 67.539 47.36C67.939 47.58 68.579 47.7 69.459 47.72C71.199 47.72 73.329 47.45 75.849 46.91C75.929 46.89 76.039 46.88 76.179 46.88C76.559 46.88 76.849 47.02 77.049 47.3C77.269 47.56 77.379 47.87 77.379 48.23C77.379 48.65 77.249 48.98 76.989 49.22C76.729 49.44 76.329 49.6 75.789 49.7C73.649 50.14 71.669 50.36 69.849 50.36ZM99.8474 43.4C99.8874 45.84 99.9074 47.71 99.9074 49.01C99.9074 49.47 99.7774 49.83 99.5174 50.09C99.2774 50.35 98.9174 50.48 98.4374 50.48C97.9574 50.48 97.5774 50.36 97.2974 50.12C97.0374 49.86 96.9074 49.52 96.9074 49.1V40.64C96.9074 37.86 96.8074 35.81 96.6074 34.49C96.4074 33.17 96.1474 32.51 95.8274 32.51C95.5474 32.51 95.1574 32.96 94.6574 33.86C94.1574 34.76 93.7374 35.64 93.3974 36.5C92.8774 37.74 92.3674 39.52 91.8674 41.84C91.6874 42.6 91.1274 42.98 90.1874 42.98C89.2874 42.98 88.7374 42.63 88.5374 41.93C88.3974 41.51 88.2374 40.94 88.0574 40.22C87.6374 38.62 87.2674 37.4 86.9474 36.56C86.6074 35.62 86.1874 34.7 85.6874 33.8C85.1874 32.9 84.8174 32.45 84.5774 32.45C83.9974 32.45 83.6474 35.11 83.5274 40.43C83.5074 41.39 83.4974 42.78 83.4974 44.6V49.1C83.4974 49.48 83.3574 49.79 83.0774 50.03C82.8174 50.25 82.4374 50.36 81.9374 50.36C81.4174 50.36 81.0474 50.23 80.8274 49.97C80.6074 49.71 80.4974 49.31 80.4974 48.77C80.4974 47.71 80.5174 46.24 80.5574 44.36L80.5874 40.37C80.5874 36.39 80.8674 33.49 81.4274 31.67C82.0074 29.85 82.9374 28.94 84.2174 28.94C85.6774 28.94 86.8574 29.87 87.7574 31.73C88.6574 33.57 89.4574 35.89 90.1574 38.69C90.7774 36.13 91.6074 33.87 92.6474 31.91C93.7074 29.93 94.9574 28.94 96.3974 28.94C97.2774 28.94 97.9574 29.39 98.4374 30.29C98.9374 31.17 99.2874 32.45 99.4874 34.13C99.6874 35.79 99.7974 37.92 99.8174 40.52L99.8474 43.4ZM111.271 50.3C109.811 50.3 108.531 50 107.431 49.4C106.351 48.8 105.521 48 104.941 47C104.361 45.98 104.071 44.89 104.071 43.73C104.071 42.73 104.561 42.23 105.541 42.23C106.521 42.23 107.031 42.66 107.071 43.52C107.091 44.8 107.511 45.8 108.331 46.52C109.151 47.24 110.131 47.6 111.271 47.6C112.331 47.6 113.211 47.36 113.911 46.88C114.631 46.38 114.991 45.67 114.991 44.75C114.991 44.05 114.791 43.48 114.391 43.04C113.991 42.58 113.471 42.21 112.831 41.93C112.211 41.65 111.401 41.36 110.401 41.06C109.281 40.74 108.291 40.41 107.431 40.07C106.591 39.71 105.811 39.13 105.091 38.33C104.371 37.51 104.011 36.45 104.011 35.15C104.011 33.97 104.321 32.92 104.941 32C105.561 31.08 106.401 30.36 107.461 29.84C108.521 29.32 109.671 29.06 110.911 29.06C112.211 29.06 113.381 29.34 114.421 29.9C115.481 30.46 116.311 31.2 116.911 32.12C117.511 33.02 117.811 33.98 117.811 35C117.811 35.52 117.691 35.9 117.451 36.14C117.211 36.36 116.851 36.47 116.371 36.47C115.851 36.47 115.481 36.36 115.261 36.14C115.061 35.92 114.931 35.59 114.871 35.15C114.831 34.21 114.451 33.41 113.731 32.75C113.011 32.09 112.071 31.76 110.911 31.76C109.771 31.76 108.831 32.08 108.091 32.72C107.371 33.36 107.011 34.18 107.011 35.18C107.011 35.82 107.201 36.34 107.581 36.74C107.961 37.12 108.441 37.43 109.021 37.67C109.601 37.89 110.511 38.19 111.751 38.57C112.811 38.89 113.761 39.26 114.601 39.68C115.461 40.08 116.231 40.7 116.911 41.54C117.611 42.36 117.961 43.41 117.961 44.69C117.961 45.81 117.671 46.8 117.091 47.66C116.511 48.5 115.711 49.15 114.691 49.61C113.671 50.07 112.531 50.3 111.271 50.3ZM129.63 50.24C129.13 50.24 128.75 50.11 128.49 49.85C128.25 49.59 128.13 49.24 128.13 48.8L128.04 40.43C127.62 40.31 127.08 39.9 126.42 39.2C125.76 38.5 125.12 37.67 124.5 36.71C123.94 35.87 123.45 35.01 123.03 34.13C122.61 33.23 122.17 32.19 121.71 31.01C121.65 30.89 121.62 30.76 121.62 30.62C121.62 30.26 121.78 29.95 122.1 29.69C122.44 29.41 122.83 29.27 123.27 29.27C123.63 29.27 123.92 29.38 124.14 29.6C124.38 29.8 124.59 30.1 124.77 30.5C125.29 31.72 125.69 32.63 125.97 33.23C126.27 33.81 126.69 34.53 127.23 35.39C127.73 36.21 128.18 36.87 128.58 37.37C128.98 37.87 129.32 38.12 129.6 38.12C130.08 38.12 130.86 37.2 131.94 35.36C132.62 34.2 133.46 32.54 134.46 30.38C134.64 30 134.82 29.73 135 29.57C135.2 29.41 135.47 29.33 135.81 29.33C136.29 29.33 136.69 29.46 137.01 29.72C137.35 29.98 137.52 30.3 137.52 30.68C137.52 30.88 137.47 31.06 137.37 31.22C136.47 33.44 135.57 35.29 134.67 36.77C134.05 37.77 133.38 38.61 132.66 39.29C131.96 39.95 131.42 40.33 131.04 40.43L131.13 48.74C131.13 49.22 131 49.59 130.74 49.85C130.5 50.11 130.13 50.24 129.63 50.24Z" fill="black"/>
<path d="M158 6.10001H176.9C174.363 21.0403 174.343 29.318 176.9 43.9H158C159.874 29.3304 159.846 21.0601 158 6.10001Z" fill="#747474"/>
<rect x="164.3" y="18.7" width="6.3" height="12.6" fill="#EFEFEF"/>
<path d="M24.4 61.1559C68.056 61.1559 111.712 61.1559 155.368 61.1559C155.434 61.1559 161.982 60.4347 160.381 62.0944C156.265 66.3625 151.634 68.059 147.209 69.7588C139.097 72.8744 130.964 75.2333 122.73 75.2333" stroke="black" stroke-linecap="round"/>
<path d="M116.918 69.3718L117.358 68.9324L111.934 63.508L111.494 63.9475L116.918 69.3718Z" fill="#EBE7F2"/>
<path d="M117.564 69.9491L117.969 69.5439L117.358 68.9325L116.953 69.3377L117.564 69.9491Z" fill="#EBE7F2"/>
<path d="M118.044 70.289L118.17 70.6939C118.329 71.2056 118.602 71.7432 118.968 72.2651L119.05 72.3826L119.385 72.0475L119.303 71.93C118.937 71.4081 118.664 70.8705 118.505 70.3588L118.379 69.9539L118.044 70.289Z" fill="#EBE7F2"/>
<path d="M117.445 68.3485L117.645 68.9945C117.905 69.8308 118.357 70.7219 118.953 71.5711L118.962 71.5849L118.351 72.1958L118.338 72.186C117.488 71.5904 116.597 71.1383 115.761 70.8787L115.115 70.6783C114.982 70.637 114.84 70.7115 114.799 70.8446C114.758 70.9775 114.832 71.1193 114.965 71.1607L115.611 71.3611C116.398 71.6053 117.241 72.0335 118.048 72.5995L118.235 72.7311C118.335 72.8016 118.472 72.7898 118.559 72.703L119.469 71.792C119.518 71.7432 119.543 71.6785 119.543 71.6133C119.543 71.5629 119.528 71.5122 119.498 71.4683L119.366 71.281C118.8 70.4742 118.372 69.6318 118.128 68.8448L117.927 68.1988C117.886 68.0656 117.744 67.9911 117.611 68.0325C117.478 68.0738 117.403 68.2152 117.445 68.3485Z" fill="#846F75"/>
<path d="M104.579 60.4578C104.48 60.5565 104.48 60.7163 104.579 60.8149L113.232 69.4683L114.207 70.4435C114.306 70.5422 114.466 70.5422 114.564 70.4435L117.21 67.7978C117.26 67.7485 117.284 67.6839 117.284 67.6192C117.284 67.5546 117.26 67.49 117.21 67.4406L116.235 66.4653L107.581 57.812C107.483 57.7133 107.323 57.7133 107.224 57.812L104.579 60.4578ZM116.675 67.6193L114.386 69.908L113.768 69.2898L115.813 67.2443L116.056 67.0011L116.675 67.6193ZM115.699 66.644L113.654 68.6895L113.411 68.9327L105.114 60.6364L107.403 58.3478L115.699 66.644Z" fill="#846F75"/>
<path d="M105.373 57.4252L104.192 58.6065C103.936 58.8627 103.936 59.2791 104.192 59.535L104.466 59.8089C104.564 59.9076 104.724 59.9076 104.823 59.8089C104.922 59.7102 104.921 59.5504 104.823 59.4518L104.549 59.1779C104.49 59.1189 104.49 59.0229 104.549 58.9636L105.731 57.7823C105.759 57.7537 105.797 57.7379 105.838 57.7379C105.878 57.7379 105.916 57.7537 105.945 57.7823L106.219 58.0561C106.317 58.1547 106.477 58.1547 106.576 58.0561C106.625 58.0068 106.65 57.9421 106.65 57.8775C106.65 57.8128 106.625 57.7482 106.576 57.6989L106.302 57.4251C106.178 57.301 106.013 57.2328 105.838 57.2328C105.662 57.2329 105.497 57.301 105.373 57.4252Z" fill="#846F75"/>
<path d="M119.88 73.1134C119.996 72.998 119.996 72.8109 119.88 72.6955L119.656 72.4716C119.607 72.4221 119.527 72.4221 119.477 72.4716L119.238 72.7104C119.189 72.7598 119.189 72.84 119.238 72.8894L119.462 73.1133C119.578 73.2288 119.765 73.2288 119.88 73.1134Z" fill="black"/>
</svg>
