<svg width="417" height="190" viewBox="0 0 417 190" fill="none" xmlns="http://www.w3.org/2000/svg">
<g filter="url(#filter0_d_7_81)">
<rect x="4.5" y="0.5" width="408" height="180.778" fill="white" stroke="black"/>
<path d="M58.5333 99.7682C156.103 99.7682 253.673 99.7682 351.243 99.7682C351.39 99.7682 366.026 98.1562 362.448 101.866C353.247 111.405 342.897 115.196 333.007 118.995C314.879 125.959 296.702 131.231 278.298 131.231" stroke="black" stroke-linecap="round"/>
<path d="M51.8723 90.1304L52.8544 89.1483L40.7312 77.025L39.749 78.0072L51.8723 90.1304Z" fill="#EBE7F2"/>
<path d="M53.315 91.4206L54.2205 90.5151L52.8541 89.1487L51.9486 90.0542L53.315 91.4206Z" fill="#EBE7F2"/>
<path d="M54.3881 92.1804L54.669 93.0853C55.0239 94.229 55.634 95.4304 56.4523 96.5968L56.6366 96.8595L57.3856 96.1105L57.2013 95.8479C56.383 94.6814 55.7729 93.48 55.4179 92.3364L55.137 91.4314L54.3881 92.1804Z" fill="#EBE7F2"/>
<path d="M53.0489 87.8432L53.4969 89.287C54.0769 91.1562 55.0872 93.1477 56.4188 95.0458L56.4405 95.0765L55.0752 96.4419L55.0443 96.42C53.1462 95.0889 51.1547 94.0783 49.2858 93.4983L47.8422 93.0504C47.5444 92.9581 47.2281 93.1245 47.1358 93.422C47.0437 93.7191 47.2096 94.0359 47.5074 94.1285L48.951 94.5764C50.7097 95.1221 52.5926 96.0791 54.3959 97.3441L54.8147 97.6383C55.0391 97.7959 55.3443 97.7695 55.538 97.5755L57.5738 95.5395C57.6831 95.4305 57.7391 95.2858 57.7391 95.1401C57.7391 95.0275 57.7054 94.9141 57.6366 94.8159L57.3426 94.3974C56.0776 92.5941 55.1206 90.7114 54.5747 88.9525L54.1268 87.5087C54.0344 87.2111 53.7181 87.0445 53.4206 87.137C53.1228 87.2294 52.9564 87.5455 53.0489 87.8432Z" fill="#846F75"/>
<path d="M24.2933 70.2078C24.0727 70.4284 24.0727 70.7856 24.2933 71.0059L43.6335 90.3461L45.8133 92.5257C46.0336 92.7462 46.391 92.7462 46.6114 92.5257L52.5245 86.6125C52.6347 86.5023 52.6898 86.3578 52.6898 86.2134C52.6898 86.0689 52.6347 85.9246 52.5245 85.8142L50.3447 83.6344L31.0046 64.2944C30.7842 64.0739 30.4268 64.0739 30.2065 64.2944L24.2933 70.2078ZM51.3273 86.2136L46.2122 91.3286L44.8307 89.9471L49.4021 85.3755L49.9458 84.8319L51.3273 86.2136ZM49.1475 84.0338L44.5761 88.6054L44.0324 89.149L25.4906 70.607L30.6056 65.4919L49.1475 84.0338Z" fill="#846F75"/>
<path d="M26.0694 63.43L23.429 66.0702C22.8569 66.6427 22.8571 67.5734 23.429 68.1455L24.0408 68.7575C24.2614 68.9781 24.6186 68.9781 24.8392 68.7575C25.0597 68.537 25.0595 68.1798 24.8392 67.9594L24.2273 67.3474C24.0955 67.2153 24.0952 67.0008 24.2273 66.8683L26.8677 64.2281C26.9318 64.1642 27.0169 64.129 27.1072 64.129C27.1978 64.129 27.2827 64.1642 27.3468 64.2281L27.9586 64.84C28.1792 65.0605 28.5364 65.0605 28.7569 64.84C28.8671 64.7298 28.9222 64.5853 28.9222 64.4408C28.9222 64.2963 28.8671 64.1518 28.7569 64.0416L28.1451 63.4298C27.8679 63.1526 27.4994 62.9999 27.1072 62.9999C26.7151 63.0002 26.3464 63.1526 26.0694 63.43Z" fill="#846F75"/>
<path d="M58.4917 98.4928C58.7496 98.2349 58.7496 97.8167 58.4917 97.5587L57.9913 97.0583C57.8808 96.9478 57.7016 96.9478 57.5911 97.0583L57.0574 97.592C56.9469 97.7025 56.9469 97.8817 57.0574 97.9922L57.5578 98.4927C57.8157 98.7508 58.2337 98.7508 58.4917 98.4928Z" fill="black"/>
</g>
<defs>
<filter id="filter0_d_7_81" x="0" y="0" width="417" height="189.778" filterUnits="userSpaceOnUse" color-interpolation-filters="sRGB">
<feFlood flood-opacity="0" result="BackgroundImageFix"/>
<feColorMatrix in="SourceAlpha" type="matrix" values="0 0 0 0 0 0 0 0 0 0 0 0 0 0 0 0 0 0 127 0" result="hardAlpha"/>
<feOffset dy="4"/>
<feGaussianBlur stdDeviation="2"/>
<feComposite in2="hardAlpha" operator="out"/>
<feColorMatrix type="matrix" values="0 0 0 0 0 0 0 0 0 0 0 0 0 0 0 0 0 0 0.25 0"/>
<feBlend mode="normal" in2="BackgroundImageFix" result="effect1_dropShadow_7_81"/>
<feBlend mode="normal" in="SourceGraphic" in2="effect1_dropShadow_7_81" result="shape"/>
</filter>
</defs>
</svg>
